<?xml version="1.0" standalone="no"?><!DOCTYPE svg PUBLIC "-//W3C//DTD SVG 1.1//EN" "http://www.w3.org/Graphics/SVG/1.1/DTD/svg11.dtd"><svg t="1504242922543" class="icon" style="" viewBox="0 0 1139 1024" version="1.1" xmlns="http://www.w3.org/2000/svg" p-id="2755" xmlns:xlink="http://www.w3.org/1999/xlink" width="222.4609375" height="200"><defs><style type="text/css"></style></defs><path d="M1085.98272 674.665412 736.648132 1024l-85.172706 0 370.627765-370.627765c70.565647-70.565647 70.565647-142.396235 0-212.961882L581.692838 0l85.172706 0 419.117176 419.117176C1156.548367 489.682824 1156.548367 604.099765 1085.98272 674.665412zM958.223661 632.079059 617.472602 972.830118c-47.043765 47.043765-123.331765 47.043765-170.375529 0L35.298485 561.031529C11.686249 537.419294-0.089751 508.897882 0.000602 475.527529L0.874014 133.632c0.090353-33.28 11.926588-61.620706 35.508706-85.082353C59.964838 25.088 88.395896 13.402353 121.675896 13.492706l339.606588 0.873412c33.159529 0.090353 61.44 11.836235 84.871529 35.297882L958.223661 461.703529C1005.267426 508.747294 1005.267426 585.035294 958.223661 632.079059zM894.314014 482.996706 524.83072 113.543529c-23.431529-23.461647-51.712-35.207529-84.871529-35.297882L185.555426 77.372235C152.275426 77.281882 102.551191 67.674353 78.969073 91.136 55.386955 114.597647 64.843896 164.261647 64.783661 197.541647l-0.873412 256.692706c-0.090353 33.370353 11.685647 61.891765 35.297882 85.504L468.390249 908.950588c47.043765 47.043765 102.038588 25.750588 149.082353-21.293176l255.548235-255.548235C920.064602 585.035294 941.357779 530.070588 894.314014 482.996706zM260.488132 421.647059c-77.191529 0-139.776-62.373647-139.776-139.294118S183.296602 143.058824 260.488132 143.058824c77.191529 0 139.776 62.373647 139.776 139.294118S337.679661 421.647059 260.488132 421.647059zM260.488132 205.191529c-42.887529 0-77.643294 34.544941-77.643294 77.191529s34.755765 77.191529 77.643294 77.191529c42.887529 0 77.643294-34.544941 77.643294-77.191529S303.375661 205.191529 260.488132 205.191529z" p-id="2756" fill="#17a2b8"></path></svg>